<!-- Tab icon: the Double crest simplified for 16px, drawn edge to edge. The thin
     outer shield and the dark plate are dropped (neither survives at tab size),
     and the shield fills the frame so the mark is as big as the tab allows. -->
<svg xmlns="http://www.w3.org/2000/svg" viewBox="0 0 64 64"><defs><linearGradient id="m" x1="0" y1="0" x2="1" y2="1"><stop offset="0" stop-color="#ffe066"/><stop offset="1" stop-color="#c99700"/></linearGradient></defs><path d="M32 2 L61 11 V36 C61 49 47 59 32 62 C17 59 3 49 3 36 V11 Z" fill="url(#m)"/><g transform="translate(32 33) scale(.72) translate(-32 -32)" fill="#0a0a0a"><path d="M32 14.5L35.2 18.5L34 22.5L32 25L30 22.5L28.8 18.5Z"/><path d="M29.5 27.5L4 15L9 21.5L4.5 22.5L11 28L6.5 29.5L14 34L10.5 35.5L20 38.5L29.5 41.5Z"/><path d="M34.5 27.5L60 15L55 21.5L59.5 22.5L53 28L57.5 29.5L50 34L53.5 35.5L44 38.5L34.5 41.5Z"/><path d="M28.5 43.5L32 54.5L35.5 43.5L32 46Z"/></g></svg>
