<svg xmlns="http://www.w3.org/2000/svg" viewBox="0 0 64 64"><defs><linearGradient id="g" x1="0" y1="0" x2="1" y2="1"><stop offset="0" stop-color="#f8e6b8"/><stop offset=".55" stop-color="#d9b571"/><stop offset="1" stop-color="#9c7535"/></linearGradient><linearGradient id="t" x1="0" y1="0" x2="0" y2="1"><stop offset="0" stop-color="#23211b"/><stop offset="1" stop-color="#0e0d0a"/></linearGradient></defs><rect x="1.5" y="1.5" width="61" height="61" rx="16" fill="url(#t)" stroke="#d9b571" stroke-opacity=".7" stroke-width="2.5"/><path fill="url(#g)" d="M15 55L11 42L4.5 36.5L13 33L8.5 25L17.5 22.5C21.5 16.5 29 12.5 38 12.5C46.5 12.5 53.5 15.5 57.5 22.5C60.5 27.5 59.5 34.5 55 38.5C55 34.5 52.5 30.5 48.5 30.5L46 30.5L46 32.5C44 41.5 36 50 25 56Z"/><path fill="#0e0d0a" d="M28.5 20.5L50.5 18L46.5 23.5L32.5 24.5Z"/><circle cx="41" cy="24" r="2.7" fill="#0e0d0a"/><circle cx="41.9" cy="23.1" r=".95" fill="#fff6dd"/><path fill="none" stroke="#0e0d0a" stroke-width="2.4" stroke-linecap="round" d="M45.5 31L36 35.5"/></svg>
