<!-- Tab icon: the Double crest simplified for 16px. The thin outer shield and the
     dark plate are dropped (neither survives at tab size) and the hawk is cut a
     little larger, so the mark still reads as a shield with a bird in it. -->
<svg xmlns="http://www.w3.org/2000/svg" viewBox="6 6 52 52"><defs><linearGradient id="m" x1="0" y1="0" x2="1" y2="1"><stop offset="0" stop-color="#7dd3fc"/><stop offset="1" stop-color="#0284c7"/></linearGradient></defs><path d="M32 7 L55 14 V34 C55 45 44 54 32 58 C20 54 9 45 9 34 V14 Z" fill="url(#m)"/><g transform="translate(32 33) scale(.6) translate(-32 -32)" fill="#0a1016"><path d="M32 14.5L35.2 18.5L34 22.5L32 25L30 22.5L28.8 18.5Z"/><path d="M29.5 27.5L4 15L9 21.5L4.5 22.5L11 28L6.5 29.5L14 34L10.5 35.5L20 38.5L29.5 41.5Z"/><path d="M34.5 27.5L60 15L55 21.5L59.5 22.5L53 28L57.5 29.5L50 34L53.5 35.5L44 38.5L34.5 41.5Z"/><path d="M28.5 43.5L32 54.5L35.5 43.5L32 46Z"/></g></svg>
